<mxfile host="app.diagrams.net" modified="2024-02-21T18:32:53.245Z" agent="Mozilla/5.0 (X11; Ubuntu; Linux x86_64; rv:121.0) Gecko/20100101 Firefox/121.0" etag="0p0M0Uri4Fh2aemsDCD5" version="23.1.5" type="device">
  <diagram name="P치gina-1" id="lhlbxbkvJzCDbgP3xxw3">
    <mxGraphModel dx="1827" dy="1037" grid="1" gridSize="10" guides="1" tooltips="1" connect="1" arrows="1" fold="1" page="1" pageScale="1" pageWidth="1169" pageHeight="827" math="0" shadow="0">
      <root>
        <mxCell id="0" />
        <mxCell id="1" parent="0" />
        <mxCell id="4wPU7yAXfa_n96mV8RHk-1" value="&lt;font style=&quot;font-size: 16px;&quot;&gt;FactoriaCarreraYBicicleta&lt;/font&gt;" style="rounded=0;whiteSpace=wrap;html=1;" vertex="1" parent="1">
          <mxGeometry x="125" y="180" width="210" height="60" as="geometry" />
        </mxCell>
        <mxCell id="4wPU7yAXfa_n96mV8RHk-10" style="edgeStyle=orthogonalEdgeStyle;rounded=0;orthogonalLoop=1;jettySize=auto;html=1;exitX=0.5;exitY=0;exitDx=0;exitDy=0;entryX=0.5;entryY=1;entryDx=0;entryDy=0;" edge="1" parent="1" source="4wPU7yAXfa_n96mV8RHk-2" target="4wPU7yAXfa_n96mV8RHk-1">
          <mxGeometry relative="1" as="geometry" />
        </mxCell>
        <mxCell id="4wPU7yAXfa_n96mV8RHk-47" style="edgeStyle=orthogonalEdgeStyle;rounded=0;orthogonalLoop=1;jettySize=auto;html=1;exitX=0.5;exitY=1;exitDx=0;exitDy=0;entryX=0.5;entryY=1;entryDx=0;entryDy=0;" edge="1" parent="1" source="4wPU7yAXfa_n96mV8RHk-2" target="4wPU7yAXfa_n96mV8RHk-14">
          <mxGeometry relative="1" as="geometry">
            <Array as="points">
              <mxPoint x="313" y="570" />
              <mxPoint x="675" y="570" />
            </Array>
          </mxGeometry>
        </mxCell>
        <mxCell id="4wPU7yAXfa_n96mV8RHk-51" style="edgeStyle=orthogonalEdgeStyle;rounded=0;orthogonalLoop=1;jettySize=auto;html=1;exitX=0.5;exitY=1;exitDx=0;exitDy=0;entryX=0.5;entryY=1;entryDx=0;entryDy=0;" edge="1" parent="1" source="4wPU7yAXfa_n96mV8RHk-2" target="4wPU7yAXfa_n96mV8RHk-16">
          <mxGeometry relative="1" as="geometry">
            <Array as="points">
              <mxPoint x="313" y="570" />
              <mxPoint x="1035" y="570" />
            </Array>
          </mxGeometry>
        </mxCell>
        <mxCell id="4wPU7yAXfa_n96mV8RHk-2" value="&lt;font style=&quot;font-size: 16px;&quot;&gt;FactoriaCarretera&lt;/font&gt;" style="rounded=0;whiteSpace=wrap;html=1;" vertex="1" parent="1">
          <mxGeometry x="245" y="349" width="135" height="50" as="geometry" />
        </mxCell>
        <mxCell id="4wPU7yAXfa_n96mV8RHk-6" style="edgeStyle=orthogonalEdgeStyle;rounded=0;orthogonalLoop=1;jettySize=auto;html=1;exitX=0.5;exitY=0;exitDx=0;exitDy=0;" edge="1" parent="1" source="4wPU7yAXfa_n96mV8RHk-3" target="4wPU7yAXfa_n96mV8RHk-1">
          <mxGeometry relative="1" as="geometry" />
        </mxCell>
        <mxCell id="4wPU7yAXfa_n96mV8RHk-45" style="edgeStyle=orthogonalEdgeStyle;rounded=0;orthogonalLoop=1;jettySize=auto;html=1;exitX=0.5;exitY=1;exitDx=0;exitDy=0;entryX=0.5;entryY=1;entryDx=0;entryDy=0;" edge="1" parent="1" source="4wPU7yAXfa_n96mV8RHk-3" target="4wPU7yAXfa_n96mV8RHk-17">
          <mxGeometry relative="1" as="geometry">
            <Array as="points">
              <mxPoint x="135" y="480" />
              <mxPoint x="865" y="480" />
            </Array>
          </mxGeometry>
        </mxCell>
        <mxCell id="4wPU7yAXfa_n96mV8RHk-46" style="edgeStyle=orthogonalEdgeStyle;rounded=0;orthogonalLoop=1;jettySize=auto;html=1;exitX=0.5;exitY=1;exitDx=0;exitDy=0;entryX=0.5;entryY=1;entryDx=0;entryDy=0;" edge="1" parent="1" source="4wPU7yAXfa_n96mV8RHk-3" target="4wPU7yAXfa_n96mV8RHk-15">
          <mxGeometry relative="1" as="geometry">
            <Array as="points">
              <mxPoint x="135" y="480" />
              <mxPoint x="505" y="480" />
            </Array>
          </mxGeometry>
        </mxCell>
        <mxCell id="4wPU7yAXfa_n96mV8RHk-3" value="&lt;font style=&quot;font-size: 16px;&quot;&gt;FactoriaMonta침a&lt;/font&gt;" style="rounded=0;whiteSpace=wrap;html=1;" vertex="1" parent="1">
          <mxGeometry x="65" y="349" width="140" height="49" as="geometry" />
        </mxCell>
        <mxCell id="4wPU7yAXfa_n96mV8RHk-12" value="&lt;font style=&quot;font-size: 16px;&quot;&gt;Carrera&lt;/font&gt;" style="rounded=0;whiteSpace=wrap;html=1;" vertex="1" parent="1">
          <mxGeometry x="502" y="180" width="175" height="60" as="geometry" />
        </mxCell>
        <mxCell id="4wPU7yAXfa_n96mV8RHk-13" value="&lt;font style=&quot;font-size: 16px;&quot;&gt;Bicicleta&lt;/font&gt;" style="rounded=0;whiteSpace=wrap;html=1;" vertex="1" parent="1">
          <mxGeometry x="865" y="180" width="175" height="60" as="geometry" />
        </mxCell>
        <mxCell id="4wPU7yAXfa_n96mV8RHk-43" style="edgeStyle=orthogonalEdgeStyle;rounded=0;orthogonalLoop=1;jettySize=auto;html=1;exitX=0.5;exitY=0;exitDx=0;exitDy=0;entryX=0.5;entryY=1;entryDx=0;entryDy=0;" edge="1" parent="1" source="4wPU7yAXfa_n96mV8RHk-14" target="4wPU7yAXfa_n96mV8RHk-12">
          <mxGeometry relative="1" as="geometry" />
        </mxCell>
        <mxCell id="4wPU7yAXfa_n96mV8RHk-14" value="&lt;font style=&quot;font-size: 16px;&quot;&gt;CarreraCarretera&lt;/font&gt;" style="rounded=0;whiteSpace=wrap;html=1;" vertex="1" parent="1">
          <mxGeometry x="605" y="348" width="140" height="51" as="geometry" />
        </mxCell>
        <mxCell id="4wPU7yAXfa_n96mV8RHk-44" style="edgeStyle=orthogonalEdgeStyle;rounded=0;orthogonalLoop=1;jettySize=auto;html=1;exitX=0.5;exitY=0;exitDx=0;exitDy=0;entryX=0.5;entryY=1;entryDx=0;entryDy=0;" edge="1" parent="1" source="4wPU7yAXfa_n96mV8RHk-15" target="4wPU7yAXfa_n96mV8RHk-12">
          <mxGeometry relative="1" as="geometry" />
        </mxCell>
        <mxCell id="4wPU7yAXfa_n96mV8RHk-15" value="&lt;font style=&quot;font-size: 16px;&quot;&gt;CarreraMonta침a&lt;/font&gt;" style="rounded=0;whiteSpace=wrap;html=1;" vertex="1" parent="1">
          <mxGeometry x="435" y="348" width="140" height="50" as="geometry" />
        </mxCell>
        <mxCell id="4wPU7yAXfa_n96mV8RHk-22" style="edgeStyle=orthogonalEdgeStyle;rounded=0;orthogonalLoop=1;jettySize=auto;html=1;exitX=0.5;exitY=0;exitDx=0;exitDy=0;" edge="1" parent="1" source="4wPU7yAXfa_n96mV8RHk-16" target="4wPU7yAXfa_n96mV8RHk-13">
          <mxGeometry relative="1" as="geometry" />
        </mxCell>
        <mxCell id="4wPU7yAXfa_n96mV8RHk-16" value="&lt;font style=&quot;font-size: 16px;&quot;&gt;BicicletaCarretera&lt;/font&gt;" style="rounded=0;whiteSpace=wrap;html=1;" vertex="1" parent="1">
          <mxGeometry x="965" y="349" width="140" height="51" as="geometry" />
        </mxCell>
        <mxCell id="4wPU7yAXfa_n96mV8RHk-21" style="edgeStyle=orthogonalEdgeStyle;rounded=0;orthogonalLoop=1;jettySize=auto;html=1;exitX=0.5;exitY=0;exitDx=0;exitDy=0;" edge="1" parent="1" source="4wPU7yAXfa_n96mV8RHk-17" target="4wPU7yAXfa_n96mV8RHk-13">
          <mxGeometry relative="1" as="geometry" />
        </mxCell>
        <mxCell id="4wPU7yAXfa_n96mV8RHk-17" value="&lt;font style=&quot;font-size: 16px;&quot;&gt;BicicletaMonta침a&lt;/font&gt;" style="rounded=0;whiteSpace=wrap;html=1;" vertex="1" parent="1">
          <mxGeometry x="795" y="349" width="140" height="50" as="geometry" />
        </mxCell>
        <mxCell id="4wPU7yAXfa_n96mV8RHk-27" value="&lt;font style=&quot;font-size: 16px;&quot;&gt;&amp;lt;&amp;lt;create&amp;gt;&amp;gt;&lt;/font&gt;" style="text;html=1;align=center;verticalAlign=middle;whiteSpace=wrap;rounded=0;" vertex="1" parent="1">
          <mxGeometry x="345" y="540" width="60" height="30" as="geometry" />
        </mxCell>
        <mxCell id="4wPU7yAXfa_n96mV8RHk-28" value="&lt;font style=&quot;font-size: 16px;&quot;&gt;&amp;lt;&amp;lt;create&amp;gt;&amp;gt;&lt;/font&gt;" style="text;html=1;align=center;verticalAlign=middle;whiteSpace=wrap;rounded=0;" vertex="1" parent="1">
          <mxGeometry x="165" y="450" width="60" height="30" as="geometry" />
        </mxCell>
        <mxCell id="4wPU7yAXfa_n96mV8RHk-30" value="&lt;font style=&quot;font-size: 16px;&quot;&gt;&amp;lt;&amp;lt;abstract&amp;gt;&amp;gt;&lt;/font&gt;" style="text;html=1;align=center;verticalAlign=middle;whiteSpace=wrap;rounded=0;" vertex="1" parent="1">
          <mxGeometry x="125" y="150" width="100" height="30" as="geometry" />
        </mxCell>
        <mxCell id="4wPU7yAXfa_n96mV8RHk-31" value="&lt;font style=&quot;font-size: 16px;&quot;&gt;&amp;lt;&amp;lt;abstract&amp;gt;&amp;gt;&lt;/font&gt;" style="text;html=1;align=center;verticalAlign=middle;whiteSpace=wrap;rounded=0;" vertex="1" parent="1">
          <mxGeometry x="502" y="150" width="100" height="30" as="geometry" />
        </mxCell>
        <mxCell id="4wPU7yAXfa_n96mV8RHk-32" value="&lt;font style=&quot;font-size: 16px;&quot;&gt;&amp;lt;&amp;lt;abstract&amp;gt;&amp;gt;&lt;/font&gt;" style="text;html=1;align=center;verticalAlign=middle;whiteSpace=wrap;rounded=0;" vertex="1" parent="1">
          <mxGeometry x="865" y="150" width="100" height="30" as="geometry" />
        </mxCell>
        <mxCell id="4wPU7yAXfa_n96mV8RHk-37" value="" style="endArrow=classic;startArrow=classic;html=1;rounded=0;" edge="1" parent="1">
          <mxGeometry width="50" height="50" relative="1" as="geometry">
            <mxPoint x="285" y="179" as="sourcePoint" />
            <mxPoint x="1005" y="181" as="targetPoint" />
            <Array as="points">
              <mxPoint x="285" y="109" />
              <mxPoint x="705" y="109" />
              <mxPoint x="1005" y="109" />
              <mxPoint x="1005" y="149" />
            </Array>
          </mxGeometry>
        </mxCell>
        <mxCell id="4wPU7yAXfa_n96mV8RHk-38" value="&lt;font style=&quot;font-size: 16px;&quot;&gt;&amp;lt;&amp;lt;use&amp;gt;&amp;gt;&lt;/font&gt;" style="text;html=1;align=center;verticalAlign=middle;whiteSpace=wrap;rounded=0;" vertex="1" parent="1">
          <mxGeometry x="650" y="80" width="100" height="30" as="geometry" />
        </mxCell>
        <mxCell id="4wPU7yAXfa_n96mV8RHk-39" value="" style="endArrow=classic;startArrow=classic;html=1;rounded=0;entryX=0;entryY=0.5;entryDx=0;entryDy=0;" edge="1" parent="1" target="4wPU7yAXfa_n96mV8RHk-12">
          <mxGeometry width="50" height="50" relative="1" as="geometry">
            <mxPoint x="335" y="210" as="sourcePoint" />
            <mxPoint x="385" y="160" as="targetPoint" />
          </mxGeometry>
        </mxCell>
        <mxCell id="4wPU7yAXfa_n96mV8RHk-40" value="&lt;font style=&quot;font-size: 16px;&quot;&gt;&amp;lt;&amp;lt;use&amp;gt;&amp;gt;&lt;/font&gt;" style="text;html=1;align=center;verticalAlign=middle;whiteSpace=wrap;rounded=0;" vertex="1" parent="1">
          <mxGeometry x="370" y="180" width="100" height="30" as="geometry" />
        </mxCell>
      </root>
    </mxGraphModel>
  </diagram>
</mxfile>
